<?xml version="1.0" standalone="no"?><!DOCTYPE svg PUBLIC "-//W3C//DTD SVG 1.1//EN" "http://www.w3.org/Graphics/SVG/1.1/DTD/svg11.dtd"><svg xmlns:xlink="http://www.w3.org/1999/xlink" version="1.1" class="highcharts-root" style="font-family:&quot;Open Sans&quot;, arial, helvetica, sans-serif;font-size:12px;" xmlns="http://www.w3.org/2000/svg" width="600" height="400"><desc>Created with Highcharts 5.0.7</desc><defs><clipPath id="highcharts-cgdssqp-15"><rect x="0" y="0" width="415" height="292" fill="none"></rect></clipPath></defs><rect fill="#ffffff" class="highcharts-background" x="0" y="0" width="600" height="400" rx="0" ry="0"></rect><rect fill="none" class="highcharts-plot-background" x="67" y="71" width="415" height="292"></rect><g class="highcharts-plot-lines-0"><path fill="none" stroke="#808080" stroke-width="1" d="M 67 321.5 L 482 321.5"></path></g><g class="highcharts-grid highcharts-xaxis-grid "><path fill="none" class="highcharts-grid-line" d="M 101.5 71 L 101.5 363" opacity="1"></path><path fill="none" class="highcharts-grid-line" d="M 135.5 71 L 135.5 363" opacity="1"></path><path fill="none" class="highcharts-grid-line" d="M 170.5 71 L 170.5 363" opacity="1"></path><path fill="none" class="highcharts-grid-line" d="M 204.5 71 L 204.5 363" opacity="1"></path><path fill="none" class="highcharts-grid-line" d="M 239.5 71 L 239.5 363" opacity="1"></path><path fill="none" class="highcharts-grid-line" d="M 274.5 71 L 274.5 363" opacity="1"></path><path fill="none" class="highcharts-grid-line" d="M 308.5 71 L 308.5 363" opacity="1"></path><path fill="none" class="highcharts-grid-line" d="M 343.5 71 L 343.5 363" opacity="1"></path><path fill="none" class="highcharts-grid-line" d="M 377.5 71 L 377.5 363" opacity="1"></path><path fill="none" class="highcharts-grid-line" d="M 412.5 71 L 412.5 363" opacity="1"></path><path fill="none" class="highcharts-grid-line" d="M 446.5 71 L 446.5 363" opacity="1"></path><path fill="none" class="highcharts-grid-line" d="M 481.5 71 L 481.5 363" opacity="1"></path><path fill="none" class="highcharts-grid-line" d="M 66.5 71 L 66.5 363" opacity="1"></path></g><g class="highcharts-grid highcharts-yaxis-grid "><path fill="none" stroke="#e6e6e6" stroke-width="1" class="highcharts-grid-line" d="M 67 363.5 L 482 363.5" opacity="1"></path><path fill="none" stroke="#e6e6e6" stroke-width="1" class="highcharts-grid-line" d="M 67 321.5 L 482 321.5" opacity="1"></path><path fill="none" stroke="#e6e6e6" stroke-width="1" class="highcharts-grid-line" d="M 67 280.5 L 482 280.5" opacity="1"></path><path fill="none" stroke="#e6e6e6" stroke-width="1" class="highcharts-grid-line" d="M 67 238.5 L 482 238.5" opacity="1"></path><path fill="none" stroke="#e6e6e6" stroke-width="1" class="highcharts-grid-line" d="M 67 196.5 L 482 196.5" opacity="1"></path><path fill="none" stroke="#e6e6e6" stroke-width="1" class="highcharts-grid-line" d="M 67 154.5 L 482 154.5" opacity="1"></path><path fill="none" stroke="#e6e6e6" stroke-width="1" class="highcharts-grid-line" d="M 67 113.5 L 482 113.5" opacity="1"></path><path fill="none" stroke="#e6e6e6" stroke-width="1" class="highcharts-grid-line" d="M 67 70.5 L 482 70.5" opacity="1"></path></g><rect fill="none" class="highcharts-plot-border" x="67" y="71" width="415" height="292"></rect><g class="highcharts-axis highcharts-xaxis "><path fill="none" class="highcharts-tick" stroke="#ccd6eb" stroke-width="1" d="M 101.5 363 L 101.5 373" opacity="1"></path><path fill="none" class="highcharts-tick" stroke="#ccd6eb" stroke-width="1" d="M 135.5 363 L 135.5 373" opacity="1"></path><path fill="none" class="highcharts-tick" stroke="#ccd6eb" stroke-width="1" d="M 170.5 363 L 170.5 373" opacity="1"></path><path fill="none" class="highcharts-tick" stroke="#ccd6eb" stroke-width="1" d="M 204.5 363 L 204.5 373" opacity="1"></path><path fill="none" class="highcharts-tick" stroke="#ccd6eb" stroke-width="1" d="M 239.5 363 L 239.5 373" opacity="1"></path><path fill="none" class="highcharts-tick" stroke="#ccd6eb" stroke-width="1" d="M 274.5 363 L 274.5 373" opacity="1"></path><path fill="none" class="highcharts-tick" stroke="#ccd6eb" stroke-width="1" d="M 308.5 363 L 308.5 373" opacity="1"></path><path fill="none" class="highcharts-tick" stroke="#ccd6eb" stroke-width="1" d="M 343.5 363 L 343.5 373" opacity="1"></path><path fill="none" class="highcharts-tick" stroke="#ccd6eb" stroke-width="1" d="M 377.5 363 L 377.5 373" opacity="1"></path><path fill="none" class="highcharts-tick" stroke="#ccd6eb" stroke-width="1" d="M 412.5 363 L 412.5 373" opacity="1"></path><path fill="none" class="highcharts-tick" stroke="#ccd6eb" stroke-width="1" d="M 446.5 363 L 446.5 373" opacity="1"></path><path fill="none" class="highcharts-tick" stroke="#ccd6eb" stroke-width="1" d="M 481.5 363 L 481.5 373" opacity="1"></path><path fill="none" class="highcharts-tick" stroke="#ccd6eb" stroke-width="1" d="M 66.5 363 L 66.5 373" opacity="1"></path><path fill="none" class="highcharts-axis-line" stroke="#ccd6eb" stroke-width="1" d="M 67 363.5 L 482 363.5"></path></g><g class="highcharts-axis highcharts-yaxis "><text x="28.046875" text-anchor="middle" transform="translate(0,0) rotate(270 28.046875 217)" class="highcharts-axis-title" style="color:#666666;fill:#666666;" y="217"><tspan>Temperature (°C)</tspan></text><path fill="none" class="highcharts-axis-line" d="M 67 71 L 67 363"></path></g><g class="highcharts-series-group"><g class="highcharts-series highcharts-series-0 highcharts-line-series highcharts-color-0 " transform="translate(67,71) scale(1 1)" clip-path="url(#highcharts-cgdssqp-15)"><path fill="none" d="M 17.291666666667 191.88571428571427 L 51.875 192.71999999999997 L 86.458333333333 171.0285714285714 L 121.04166666667 129.31428571428572 L 155.625 98.44571428571427 L 190.20833333333 70.91428571428571 L 224.79166666667 40.04571428571427 L 259.375 29.19999999999999 L 293.95833333333 55.897142857142825 L 328.54166666667 97.61142857142855 L 363.125 134.32 L 397.70833333333 170.1942857142857" class="highcharts-graph" stroke="#7cb5ec" stroke-width="2" stroke-linejoin="round" stroke-linecap="round"></path></g><g class="highcharts-markers highcharts-series-0 highcharts-line-series highcharts-color-0 " transform="translate(67,71) scale(1 1)" clip-path="none"><path fill="#7cb5ec" d="M 21 192 A 4 4 0 1 1 20.99999800000017 191.99600000066667 Z" class="highcharts-point highcharts-color-0"></path><path fill="#7cb5ec" d="M 55 193 A 4 4 0 1 1 54.99999800000017 192.99600000066667 Z" class="highcharts-point highcharts-color-0"></path><path fill="#7cb5ec" d="M 90 171 A 4 4 0 1 1 89.99999800000016 170.99600000066667 Z" class="highcharts-point highcharts-color-0"></path><path fill="#7cb5ec" d="M 125 129 A 4 4 0 1 1 124.99999800000016 128.99600000066667 Z" class="highcharts-point highcharts-color-0"></path><path fill="#7cb5ec" d="M 159 98 A 4 4 0 1 1 158.99999800000018 97.99600000066667 Z" class="highcharts-point highcharts-color-0"></path><path fill="#7cb5ec" d="M 194 71 A 4 4 0 1 1 193.99999800000018 70.99600000066667 Z" class="highcharts-point highcharts-color-0"></path><path fill="#7cb5ec" d="M 228 40 A 4 4 0 1 1 227.99999800000018 39.99600000066666 Z" class="highcharts-point highcharts-color-0"></path><path fill="#7cb5ec" d="M 263 29 A 4 4 0 1 1 262.9999980000002 28.996000000666665 Z" class="highcharts-point highcharts-color-0"></path><path fill="#7cb5ec" d="M 297 56 A 4 4 0 1 1 296.9999980000002 55.99600000066666 Z" class="highcharts-point highcharts-color-0"></path><path fill="#7cb5ec" d="M 332 98 A 4 4 0 1 1 331.9999980000002 97.99600000066667 Z" class="highcharts-point highcharts-color-0"></path><path fill="#7cb5ec" d="M 367 134 A 4 4 0 1 1 366.9999980000002 133.99600000066667 Z" class="highcharts-point highcharts-color-0"></path><path fill="#7cb5ec" d="M 401 170 A 4 4 0 1 1 400.9999980000002 169.99600000066667 Z" class="highcharts-point highcharts-color-0"></path></g><g class="highcharts-series highcharts-series-1 highcharts-line-series highcharts-color-1 " transform="translate(67,71) scale(1 1)" clip-path="url(#highcharts-cgdssqp-15)"><path fill="none" d="M 17.291666666667 251.9542857142857 L 51.875 243.61142857142858 L 86.458333333333 202.73142857142858 L 121.04166666667 156.01142857142855 L 155.625 108.45714285714286 L 190.20833333333 66.74285714285713 L 224.79166666667 43.38285714285712 L 259.375 49.22285714285712 L 293.95833333333 82.59428571428569 L 328.54166666667 132.65142857142854 L 363.125 178.53714285714284 L 397.70833333333 229.42857142857142" class="highcharts-graph" stroke="#434348" stroke-width="2" stroke-linejoin="round" stroke-linecap="round"></path></g><g class="highcharts-markers highcharts-series-1 highcharts-line-series highcharts-color-1 " transform="translate(67,71) scale(1 1)" clip-path="none"><path fill="#434348" d="M 17 248 L 21 252 17 256 13 252 Z" class="highcharts-point highcharts-negative highcharts-color-1"></path><path fill="#434348" d="M 51 240 L 55 244 51 248 47 244 Z" class="highcharts-point highcharts-color-1"></path><path fill="#434348" d="M 86 199 L 90 203 86 207 82 203 Z" class="highcharts-point highcharts-color-1"></path><path fill="#434348" d="M 121 152 L 125 156 121 160 117 156 Z" class="highcharts-point highcharts-color-1"></path><path fill="#434348" d="M 155 104 L 159 108 155 112 151 108 Z" class="highcharts-point highcharts-color-1"></path><path fill="#434348" d="M 190 63 L 194 67 190 71 186 67 Z" class="highcharts-point highcharts-color-1"></path><path fill="#434348" d="M 224 39 L 228 43 224 47 220 43 Z" class="highcharts-point highcharts-color-1"></path><path fill="#434348" d="M 259 45 L 263 49 259 53 255 49 Z" class="highcharts-point highcharts-color-1"></path><path fill="#434348" d="M 293 79 L 297 83 293 87 289 83 Z" class="highcharts-point highcharts-color-1"></path><path fill="#434348" d="M 328 129 L 332 133 328 137 324 133 Z" class="highcharts-point highcharts-color-1"></path><path fill="#434348" d="M 363 175 L 367 179 363 183 359 179 Z" class="highcharts-point highcharts-color-1"></path><path fill="#434348" d="M 397 225 L 401 229 397 233 393 229 Z" class="highcharts-point highcharts-color-1"></path></g><g class="highcharts-series highcharts-series-2 highcharts-line-series highcharts-color-2 " transform="translate(67,71) scale(1 1)" clip-path="url(#highcharts-cgdssqp-15)"><path fill="none" d="M 17.291666666667 257.7942857142857 L 51.875 245.28 L 86.458333333333 221.0857142857143 L 121.04166666667 180.2057142857143 L 155.625 137.65714285714284 L 190.20833333333 108.45714285714286 L 224.79166666667 95.1085714285714 L 259.375 100.94857142857143 L 293.95833333333 130.9828571428571 L 328.54166666667 175.2 L 363.125 217.74857142857144 L 397.70833333333 241.94285714285712" class="highcharts-graph" stroke="#90ed7d" stroke-width="2" stroke-linejoin="round" stroke-linecap="round"></path></g><g class="highcharts-markers highcharts-series-2 highcharts-line-series highcharts-color-2 " transform="translate(67,71) scale(1 1)" clip-path="none"><path fill="#90ed7d" d="M 13 254 L 21 254 21 262 13 262 Z" class="highcharts-point highcharts-negative highcharts-color-2"></path><path fill="#90ed7d" d="M 47 241 L 55 241 55 249 47 249 Z" class="highcharts-point highcharts-color-2"></path><path fill="#90ed7d" d="M 82 217 L 90 217 90 225 82 225 Z" class="highcharts-point highcharts-color-2"></path><path fill="#90ed7d" d="M 117 176 L 125 176 125 184 117 184 Z" class="highcharts-point highcharts-color-2"></path><path fill="#90ed7d" d="M 151 134 L 159 134 159 142 151 142 Z" class="highcharts-point highcharts-color-2"></path><path fill="#90ed7d" d="M 186 104 L 194 104 194 112 186 112 Z" class="highcharts-point highcharts-color-2"></path><path fill="#90ed7d" d="M 220 91 L 228 91 228 99 220 99 Z" class="highcharts-point highcharts-color-2"></path><path fill="#90ed7d" d="M 255 97 L 263 97 263 105 255 105 Z" class="highcharts-point highcharts-color-2"></path><path fill="#90ed7d" d="M 289 127 L 297 127 297 135 289 135 Z" class="highcharts-point highcharts-color-2"></path><path fill="#90ed7d" d="M 324 171 L 332 171 332 179 324 179 Z" class="highcharts-point highcharts-color-2"></path><path fill="#90ed7d" d="M 359 214 L 367 214 367 222 359 222 Z" class="highcharts-point highcharts-color-2"></path><path fill="#90ed7d" d="M 393 238 L 401 238 401 246 393 246 Z" class="highcharts-point highcharts-color-2"></path></g><g class="highcharts-series highcharts-series-3 highcharts-line-series highcharts-color-3 " transform="translate(67,71) scale(1 1)" clip-path="url(#highcharts-cgdssqp-15)"><path fill="none" d="M 17.291666666667 217.74857142857144 L 51.875 215.24571428571429 L 86.458333333333 202.73142857142858 L 121.04166666667 179.37142857142857 L 155.625 151.00571428571428 L 190.20833333333 123.47428571428571 L 224.79166666667 108.45714285714286 L 259.375 111.79428571428568 L 293.95833333333 131.81714285714284 L 328.54166666667 164.3542857142857 L 363.125 195.22285714285715 L 397.70833333333 210.24" class="highcharts-graph" stroke="#f7a35c" stroke-width="2" stroke-linejoin="round" stroke-linecap="round"></path></g><g class="highcharts-markers highcharts-series-3 highcharts-line-series highcharts-color-3 " transform="translate(67,71) scale(1 1)" clip-path="none"><path fill="#f7a35c" d="M 17 214 L 21 222 13 222 Z" class="highcharts-point highcharts-color-3"></path><path fill="#f7a35c" d="M 51 211 L 55 219 47 219 Z" class="highcharts-point highcharts-color-3"></path><path fill="#f7a35c" d="M 86 199 L 90 207 82 207 Z" class="highcharts-point highcharts-color-3"></path><path fill="#f7a35c" d="M 121 175 L 125 183 117 183 Z" class="highcharts-point highcharts-color-3"></path><path fill="#f7a35c" d="M 155 147 L 159 155 151 155 Z" class="highcharts-point highcharts-color-3"></path><path fill="#f7a35c" d="M 190 119 L 194 127 186 127 Z" class="highcharts-point highcharts-color-3"></path><path fill="#f7a35c" d="M 224 104 L 228 112 220 112 Z" class="highcharts-point highcharts-color-3"></path><path fill="#f7a35c" d="M 259 108 L 263 116 255 116 Z" class="highcharts-point highcharts-color-3"></path><path fill="#f7a35c" d="M 293 128 L 297 136 289 136 Z" class="highcharts-point highcharts-color-3"></path><path fill="#f7a35c" d="M 328 160 L 332 168 324 168 Z" class="highcharts-point highcharts-color-3"></path><path fill="#f7a35c" d="M 363 191 L 367 199 359 199 Z" class="highcharts-point highcharts-color-3"></path><path fill="#f7a35c" d="M 397 206 L 401 214 393 214 Z" class="highcharts-point highcharts-color-3"></path></g></g><text x="280" text-anchor="middle" class="highcharts-title" style="color:#333333;font-size:18px;fill:#333333;" y="24"><tspan>Monthly Average Temperature</tspan></text><text x="280" text-anchor="middle" class="highcharts-subtitle" style="color:#666666;fill:#666666;" y="52"><tspan>Source: WorldClimate.com</tspan></text><g class="highcharts-legend" transform="translate(494,156)"><rect fill="none" class="highcharts-legend-box" rx="0" ry="0" x="0" y="0" width="95" height="83" visibility="visible"></rect><g><g><g class="highcharts-legend-item highcharts-line-series highcharts-color-0 highcharts-series-0" transform="translate(8,3)"><path fill="none" d="M 0 11 L 16 11" class="highcharts-graph" stroke="#7cb5ec" stroke-width="2"></path><path fill="#7cb5ec" d="M 12 11 A 4 4 0 1 1 11.999998000000167 10.996000000666664 Z" class="highcharts-point"></path><text x="21" style="color:#333333;font-size:12px;font-weight:bold;cursor:pointer;fill:#333333;" text-anchor="start" y="15">Tokyo</text></g><g class="highcharts-legend-item highcharts-line-series highcharts-color-1 highcharts-series-1" transform="translate(8,21)"><path fill="none" d="M 0 11 L 16 11" class="highcharts-graph" stroke="#434348" stroke-width="2"></path><path fill="#434348" d="M 8 7 L 12 11 8 15 4 11 Z" class="highcharts-point"></path><text x="21" y="15" style="color:#333333;font-size:12px;font-weight:bold;cursor:pointer;fill:#333333;" text-anchor="start"><tspan>New York</tspan></text></g><g class="highcharts-legend-item highcharts-line-series highcharts-color-2 highcharts-series-2" transform="translate(8,39)"><path fill="none" d="M 0 11 L 16 11" class="highcharts-graph" stroke="#90ed7d" stroke-width="2"></path><path fill="#90ed7d" d="M 4 7 L 12 7 12 15 4 15 Z" class="highcharts-point"></path><text x="21" y="15" style="color:#333333;font-size:12px;font-weight:bold;cursor:pointer;fill:#333333;" text-anchor="start">Berlin</text></g><g class="highcharts-legend-item highcharts-line-series highcharts-color-3 highcharts-series-3" transform="translate(8,57)"><path fill="none" d="M 0 11 L 16 11" class="highcharts-graph" stroke="#f7a35c" stroke-width="2"></path><path fill="#f7a35c" d="M 8 7 L 12 15 4 15 Z" class="highcharts-point"></path><text x="21" y="15" style="color:#333333;font-size:12px;font-weight:bold;cursor:pointer;fill:#333333;" text-anchor="start">London</text></g></g></g></g><g class="highcharts-axis-labels highcharts-xaxis-labels "><text x="84.29166666666667" style="color:#666666;cursor:default;font-size:11px;fill:#666666;" text-anchor="middle" transform="translate(0,0)" y="382" opacity="1">Jan</text><text x="118.87500000000001" style="color:#666666;cursor:default;font-size:11px;fill:#666666;" text-anchor="middle" transform="translate(0,0)" y="382" opacity="1">Feb</text><text x="153.45833333333334" style="color:#666666;cursor:default;font-size:11px;fill:#666666;" text-anchor="middle" transform="translate(0,0)" y="382" opacity="1">Mar</text><text x="188.04166666666669" style="color:#666666;cursor:default;font-size:11px;fill:#666666;" text-anchor="middle" transform="translate(0,0)" y="382" opacity="1">Apr</text><text x="222.625" style="color:#666666;cursor:default;font-size:11px;fill:#666666;" text-anchor="middle" transform="translate(0,0)" y="382" opacity="1">May</text><text x="257.2083333333333" style="color:#666666;cursor:default;font-size:11px;fill:#666666;" text-anchor="middle" transform="translate(0,0)" y="382" opacity="1">Jun</text><text x="291.7916666666667" style="color:#666666;cursor:default;font-size:11px;fill:#666666;" text-anchor="middle" transform="translate(0,0)" y="382" opacity="1">Jul</text><text x="326.375" style="color:#666666;cursor:default;font-size:11px;fill:#666666;" text-anchor="middle" transform="translate(0,0)" y="382" opacity="1">Aug</text><text x="360.95833333333337" style="color:#666666;cursor:default;font-size:11px;fill:#666666;" text-anchor="middle" transform="translate(0,0)" y="382" opacity="1">Sep</text><text x="395.5416666666667" style="color:#666666;cursor:default;font-size:11px;fill:#666666;" text-anchor="middle" transform="translate(0,0)" y="382" opacity="1">Oct</text><text x="430.125" style="color:#666666;cursor:default;font-size:11px;fill:#666666;" text-anchor="middle" transform="translate(0,0)" y="382" opacity="1">Nov</text><text x="464.70833333333337" style="color:#666666;cursor:default;font-size:11px;fill:#666666;" text-anchor="middle" transform="translate(0,0)" y="382" opacity="1">Dec</text></g><g class="highcharts-axis-labels highcharts-yaxis-labels "><text x="52" style="color:#666666;cursor:default;font-size:11px;fill:#666666;" text-anchor="end" transform="translate(0,0)" y="367" opacity="1"><tspan>-5</tspan></text><text x="52" style="color:#666666;cursor:default;font-size:11px;fill:#666666;" text-anchor="end" transform="translate(0,0)" y="325" opacity="1"><tspan>0</tspan></text><text x="52" style="color:#666666;cursor:default;font-size:11px;fill:#666666;" text-anchor="end" transform="translate(0,0)" y="284" opacity="1"><tspan>5</tspan></text><text x="52" style="color:#666666;cursor:default;font-size:11px;fill:#666666;" text-anchor="end" transform="translate(0,0)" y="242" opacity="1"><tspan>10</tspan></text><text x="52" style="color:#666666;cursor:default;font-size:11px;fill:#666666;" text-anchor="end" transform="translate(0,0)" y="200" opacity="1"><tspan>15</tspan></text><text x="52" style="color:#666666;cursor:default;font-size:11px;fill:#666666;" text-anchor="end" transform="translate(0,0)" y="158" opacity="1"><tspan>20</tspan></text><text x="52" style="color:#666666;cursor:default;font-size:11px;fill:#666666;" text-anchor="end" transform="translate(0,0)" y="117" opacity="1"><tspan>25</tspan></text><text x="52" style="color:#666666;cursor:default;font-size:11px;fill:#666666;" text-anchor="end" transform="translate(0,0)" y="75" opacity="1"><tspan>30</tspan></text></g><text x="590" class="highcharts-credits" text-anchor="end" style="cursor:pointer;color:#999999;font-size:9px;fill:#999999;" y="395"></text></svg>