<?xml version="1.0" standalone="no"?><!DOCTYPE svg PUBLIC "-//W3C//DTD SVG 1.1//EN" "http://www.w3.org/Graphics/SVG/1.1/DTD/svg11.dtd"><svg xmlns:xlink="http://www.w3.org/1999/xlink" version="1.1" class="highcharts-root" style="font-family:&quot;Open Sans&quot;, arial, helvetica, sans-serif;font-size:12px;" xmlns="http://www.w3.org/2000/svg" width="600" height="400"><desc>Created with Highcharts 5.0.7</desc><defs><clipPath id="highcharts-7ah8w66-6"><rect x="0" y="0" width="580" height="273" fill="none"></rect></clipPath></defs><rect fill="#ffffff" class="highcharts-background" x="0" y="0" width="600" height="400" rx="0" ry="0"></rect><rect fill="none" class="highcharts-plot-background" x="10" y="53" width="580" height="273"></rect><rect fill="none" class="highcharts-plot-border" x="10" y="53" width="580" height="273"></rect><g class="highcharts-series-group"><g class="highcharts-series highcharts-series-0 highcharts-pie-series highcharts-color-undefined " transform="translate(10,53) scale(1 1)"><path fill="#7cb5ec" d="M 289.97423533973256 10.500002623785477 A 126.5 126.5 0 1 1 227.1223048001362 246.76632200430615 L 290 137 A 0 0 0 1 0 290 137 Z" class="highcharts-point highcharts-color-0" stroke="#ffffff" stroke-width="1" stroke-linejoin="round"></path><path fill="#434348" d="M 227.01256993527127 246.70338943642946 A 126.5 126.5 0 0 1 179.7468038323345 74.97998117692748 L 290 137 A 0 0 0 0 0 290 137 Z" class="highcharts-point highcharts-point-select highcharts-color-1" transform="translate(-10,3)" stroke="#ffffff" stroke-width="1" stroke-linejoin="round"></path><path fill="#90ed7d" d="M 179.8088789674144 74.86975900914219 A 126.5 126.5 0 0 1 242.68070671327374 19.6836137496352 L 290 137 A 0 0 0 0 0 290 137 Z" class="highcharts-point highcharts-color-2" stroke="#ffffff" stroke-width="1" stroke-linejoin="round"></path><path fill="#f7a35c" d="M 242.79804673961607 19.636353122423245 A 126.5 126.5 0 0 1 280.72462532179145 10.840507988582772 L 290 137 A 0 0 0 0 0 290 137 Z" class="highcharts-point highcharts-color-3" stroke="#ffffff" stroke-width="1" stroke-linejoin="round"></path><path fill="#8085e9" d="M 280.8507894304633 10.831295695191201 A 126.5 126.5 0 0 1 288.17985679076503 10.513095228407622 L 290 137 A 0 0 0 0 0 290 137 Z" class="highcharts-point highcharts-color-4" stroke="#ffffff" stroke-width="1" stroke-linejoin="round"></path><path fill="#f15c80" d="M 288.30634458452704 10.511338328948867 A 126.5 126.5 0 0 1 289.82429403783397 10.50012202608707 L 290 137 A 0 0 0 0 0 290 137 Z" class="highcharts-point highcharts-color-5" stroke="#ffffff" stroke-width="1" stroke-linejoin="round"></path></g><g class="highcharts-markers highcharts-series-0 highcharts-pie-series highcharts-color-undefined " transform="translate(10,53) scale(1 1)"></g></g><text x="300" text-anchor="middle" class="highcharts-title" style="color:#333333;font-size:18px;fill:#333333;" y="24"><tspan>Browser market shares January, 2015 to May, 2015</tspan></text><g class="highcharts-legend" transform="translate(36,338)"><rect fill="none" class="highcharts-legend-box" rx="0" ry="0" x="0" y="0" width="528" height="47" visibility="visible"></rect><g><g><g class="highcharts-legend-item highcharts-pie-series highcharts-color-0" transform="translate(8,3)"><text x="21" style="color:#333333;font-size:12px;font-weight:bold;cursor:pointer;fill:#333333;" text-anchor="start" y="15"><tspan>Microsoft Internet Explorer</tspan></text><rect x="2" y="4" width="12" height="12" fill="#7cb5ec" rx="6" ry="6" class="highcharts-point"></rect></g><g class="highcharts-legend-item highcharts-pie-series highcharts-color-1" transform="translate(212.4375,3)"><text x="21" y="15" style="color:#333333;font-size:12px;font-weight:bold;cursor:pointer;fill:#333333;" text-anchor="start">Chrome</text><rect x="2" y="4" width="12" height="12" fill="#434348" rx="6" ry="6" class="highcharts-point"></rect></g><g class="highcharts-legend-item highcharts-pie-series highcharts-color-2" transform="translate(301.859375,3)"><text x="21" y="15" style="color:#333333;font-size:12px;font-weight:bold;cursor:pointer;fill:#333333;" text-anchor="start">Firefox</text><rect x="2" y="4" width="12" height="12" fill="#90ed7d" rx="6" ry="6" class="highcharts-point"></rect></g><g class="highcharts-legend-item highcharts-pie-series highcharts-color-3" transform="translate(386.578125,3)"><text x="21" y="15" style="color:#333333;font-size:12px;font-weight:bold;cursor:pointer;fill:#333333;" text-anchor="start">Safari</text><rect x="2" y="4" width="12" height="12" fill="#f7a35c" rx="6" ry="6" class="highcharts-point"></rect></g><g class="highcharts-legend-item highcharts-pie-series highcharts-color-4" transform="translate(461.8125,3)"><text x="21" y="15" style="color:#333333;font-size:12px;font-weight:bold;cursor:pointer;fill:#333333;" text-anchor="start">Opera</text><rect x="2" y="4" width="12" height="12" fill="#8085e9" rx="6" ry="6" class="highcharts-point"></rect></g><g class="highcharts-legend-item highcharts-pie-series highcharts-color-5" transform="translate(8,21)"><text x="21" y="15" style="color:#333333;font-size:12px;font-weight:bold;cursor:pointer;fill:#333333;" text-anchor="start"><tspan>Proprietary or Undetectable</tspan></text><rect x="2" y="4" width="12" height="12" fill="#f15c80" rx="6" ry="6" class="highcharts-point"></rect></g></g></g></g><text x="590" class="highcharts-credits" text-anchor="end" style="cursor:pointer;color:#999999;font-size:9px;fill:#999999;" y="395"></text></svg>