<?xml version="1.0" standalone="no"?><!DOCTYPE svg PUBLIC "-//W3C//DTD SVG 1.1//EN" "http://www.w3.org/Graphics/SVG/1.1/DTD/svg11.dtd"><svg xmlns:xlink="http://www.w3.org/1999/xlink" version="1.1" class="highcharts-root" style="font-family:&quot;Open Sans&quot;, arial, helvetica, sans-serif;font-size:12px;" xmlns="http://www.w3.org/2000/svg" width="600" height="400"><desc>Created with Highcharts 5.0.7</desc><defs><clipPath id="highcharts-c43whu1-9"><rect x="0" y="0" width="516" height="251" fill="none"></rect></clipPath></defs><rect fill="#ffffff" class="highcharts-background" x="0" y="0" width="600" height="400" rx="0" ry="0"></rect><rect fill="none" class="highcharts-plot-background" x="74" y="71" width="516" height="251"></rect><g class="highcharts-grid highcharts-xaxis-grid "><path fill="none" class="highcharts-grid-line" d="M 116.5 71 L 116.5 322" opacity="1"></path><path fill="none" class="highcharts-grid-line" d="M 159.5 71 L 159.5 322" opacity="1"></path><path fill="none" class="highcharts-grid-line" d="M 202.5 71 L 202.5 322" opacity="1"></path><path fill="none" class="highcharts-grid-line" d="M 245.5 71 L 245.5 322" opacity="1"></path><path fill="none" class="highcharts-grid-line" d="M 288.5 71 L 288.5 322" opacity="1"></path><path fill="none" class="highcharts-grid-line" d="M 331.5 71 L 331.5 322" opacity="1"></path><path fill="none" class="highcharts-grid-line" d="M 374.5 71 L 374.5 322" opacity="1"></path><path fill="none" class="highcharts-grid-line" d="M 417.5 71 L 417.5 322" opacity="1"></path><path fill="none" class="highcharts-grid-line" d="M 460.5 71 L 460.5 322" opacity="1"></path><path fill="none" class="highcharts-grid-line" d="M 503.5 71 L 503.5 322" opacity="1"></path><path fill="none" class="highcharts-grid-line" d="M 546.5 71 L 546.5 322" opacity="1"></path><path fill="none" class="highcharts-grid-line" d="M 589.5 71 L 589.5 322" opacity="1"></path><path fill="none" class="highcharts-grid-line" d="M 73.5 71 L 73.5 322" opacity="1"></path></g><g class="highcharts-grid highcharts-yaxis-grid "><path fill="none" stroke="#e6e6e6" stroke-width="1" class="highcharts-grid-line" d="M 74 322.5 L 590 322.5" opacity="1"></path><path fill="none" stroke="#e6e6e6" stroke-width="1" class="highcharts-grid-line" d="M 74 272.5 L 590 272.5" opacity="1"></path><path fill="none" stroke="#e6e6e6" stroke-width="1" class="highcharts-grid-line" d="M 74 222.5 L 590 222.5" opacity="1"></path><path fill="none" stroke="#e6e6e6" stroke-width="1" class="highcharts-grid-line" d="M 74 171.5 L 590 171.5" opacity="1"></path><path fill="none" stroke="#e6e6e6" stroke-width="1" class="highcharts-grid-line" d="M 74 121.5 L 590 121.5" opacity="1"></path><path fill="none" stroke="#e6e6e6" stroke-width="1" class="highcharts-grid-line" d="M 74 70.5 L 590 70.5" opacity="1"></path></g><rect fill="none" class="highcharts-plot-border" x="74" y="71" width="516" height="251"></rect><g class="highcharts-axis highcharts-xaxis "><path fill="none" class="highcharts-tick" stroke="#ccd6eb" stroke-width="1" d="M 116.5 322 L 116.5 332" opacity="1"></path><path fill="none" class="highcharts-tick" stroke="#ccd6eb" stroke-width="1" d="M 159.5 322 L 159.5 332" opacity="1"></path><path fill="none" class="highcharts-tick" stroke="#ccd6eb" stroke-width="1" d="M 202.5 322 L 202.5 332" opacity="1"></path><path fill="none" class="highcharts-tick" stroke="#ccd6eb" stroke-width="1" d="M 245.5 322 L 245.5 332" opacity="1"></path><path fill="none" class="highcharts-tick" stroke="#ccd6eb" stroke-width="1" d="M 288.5 322 L 288.5 332" opacity="1"></path><path fill="none" class="highcharts-tick" stroke="#ccd6eb" stroke-width="1" d="M 331.5 322 L 331.5 332" opacity="1"></path><path fill="none" class="highcharts-tick" stroke="#ccd6eb" stroke-width="1" d="M 374.5 322 L 374.5 332" opacity="1"></path><path fill="none" class="highcharts-tick" stroke="#ccd6eb" stroke-width="1" d="M 417.5 322 L 417.5 332" opacity="1"></path><path fill="none" class="highcharts-tick" stroke="#ccd6eb" stroke-width="1" d="M 460.5 322 L 460.5 332" opacity="1"></path><path fill="none" class="highcharts-tick" stroke="#ccd6eb" stroke-width="1" d="M 503.5 322 L 503.5 332" opacity="1"></path><path fill="none" class="highcharts-tick" stroke="#ccd6eb" stroke-width="1" d="M 546.5 322 L 546.5 332" opacity="1"></path><path fill="none" class="highcharts-tick" stroke="#ccd6eb" stroke-width="1" d="M 590.5 322 L 590.5 332" opacity="1"></path><path fill="none" class="highcharts-tick" stroke="#ccd6eb" stroke-width="1" d="M 73.5 322 L 73.5 332" opacity="1"></path><path fill="none" class="highcharts-axis-line" stroke="#ccd6eb" stroke-width="1" d="M 74 322.5 L 590 322.5"></path></g><g class="highcharts-axis highcharts-yaxis "><text x="28.09375" text-anchor="middle" transform="translate(0,0) rotate(270 28.09375 196.5)" class="highcharts-axis-title" style="color:#666666;fill:#666666;" y="196.5"><tspan>Rainfall (mm)</tspan></text><path fill="none" class="highcharts-axis-line" d="M 74 71 L 74 322"></path></g><g class="highcharts-series-group"><g class="highcharts-series highcharts-series-0 highcharts-column-series highcharts-color-0 " transform="translate(74,71) scale(1 1)" clip-path="url(#highcharts-c43whu1-9)"><rect x="10" y="202" width="4" height="50" fill="#7cb5ec" class="highcharts-point highcharts-color-0"></rect><rect x="53" y="180" width="4" height="72" fill="#7cb5ec" class="highcharts-point highcharts-color-0"></rect><rect x="96" y="145" width="4" height="107" fill="#7cb5ec" class="highcharts-point highcharts-color-0"></rect><rect x="139" y="122" width="4" height="130" fill="#7cb5ec" class="highcharts-point highcharts-color-0"></rect><rect x="182" y="107" width="4" height="145" fill="#7cb5ec" class="highcharts-point highcharts-color-0"></rect><rect x="225" y="75" width="4" height="177" fill="#7cb5ec" class="highcharts-point highcharts-color-0"></rect><rect x="268" y="116" width="4" height="136" fill="#7cb5ec" class="highcharts-point highcharts-color-0"></rect><rect x="311" y="103" width="4" height="149" fill="#7cb5ec" class="highcharts-point highcharts-color-0"></rect><rect x="354" y="35" width="4" height="217" fill="#7cb5ec" class="highcharts-point highcharts-color-0"></rect><rect x="397" y="57" width="4" height="195" fill="#7cb5ec" class="highcharts-point highcharts-color-0"></rect><rect x="440" y="156" width="4" height="96" fill="#7cb5ec" class="highcharts-point highcharts-color-0"></rect><rect x="483" y="197" width="4" height="55" fill="#7cb5ec" class="highcharts-point highcharts-color-0"></rect></g><g class="highcharts-markers highcharts-series-0 highcharts-column-series highcharts-color-0 " transform="translate(74,71) scale(1 1)" clip-path="none"></g><g class="highcharts-series highcharts-series-1 highcharts-column-series highcharts-color-1 " transform="translate(74,71) scale(1 1)" clip-path="url(#highcharts-c43whu1-9)"><rect x="16" y="168" width="4" height="84" fill="#434348" class="highcharts-point highcharts-color-1"></rect><rect x="59" y="173" width="4" height="79" fill="#434348" class="highcharts-point highcharts-color-1"></rect><rect x="102" y="153" width="4" height="99" fill="#434348" class="highcharts-point highcharts-color-1"></rect><rect x="145" y="158" width="4" height="94" fill="#434348" class="highcharts-point highcharts-color-1"></rect><rect x="188" y="146" width="4" height="106" fill="#434348" class="highcharts-point highcharts-color-1"></rect><rect x="231" y="167" width="4" height="85" fill="#434348" class="highcharts-point highcharts-color-1"></rect><rect x="274" y="147" width="4" height="105" fill="#434348" class="highcharts-point highcharts-color-1"></rect><rect x="317" y="147" width="4" height="105" fill="#434348" class="highcharts-point highcharts-color-1"></rect><rect x="360" y="160" width="4" height="92" fill="#434348" class="highcharts-point highcharts-color-1"></rect><rect x="403" y="168" width="4" height="84" fill="#434348" class="highcharts-point highcharts-color-1"></rect><rect x="446" y="145" width="4" height="107" fill="#434348" class="highcharts-point highcharts-color-1"></rect><rect x="489" y="159" width="4" height="93" fill="#434348" class="highcharts-point highcharts-color-1"></rect></g><g class="highcharts-markers highcharts-series-1 highcharts-column-series highcharts-color-1 " transform="translate(74,71) scale(1 1)" clip-path="none"></g><g class="highcharts-series highcharts-series-2 highcharts-column-series highcharts-color-2 " transform="translate(74,71) scale(1 1)" clip-path="url(#highcharts-c43whu1-9)"><rect x="23" y="203" width="4" height="49" fill="#90ed7d" class="highcharts-point highcharts-color-2"></rect><rect x="66" y="213" width="4" height="39" fill="#90ed7d" class="highcharts-point highcharts-color-2"></rect><rect x="109" y="213" width="4" height="39" fill="#90ed7d" class="highcharts-point highcharts-color-2"></rect><rect x="152" y="210" width="4" height="42" fill="#90ed7d" class="highcharts-point highcharts-color-2"></rect><rect x="195" y="205" width="4" height="47" fill="#90ed7d" class="highcharts-point highcharts-color-2"></rect><rect x="238" y="204" width="4" height="48" fill="#90ed7d" class="highcharts-point highcharts-color-2"></rect><rect x="281" y="193" width="4" height="59" fill="#90ed7d" class="highcharts-point highcharts-color-2"></rect><rect x="324" y="192" width="4" height="60" fill="#90ed7d" class="highcharts-point highcharts-color-2"></rect><rect x="367" y="199" width="4" height="53" fill="#90ed7d" class="highcharts-point highcharts-color-2"></rect><rect x="410" y="187" width="4" height="65" fill="#90ed7d" class="highcharts-point highcharts-color-2"></rect><rect x="453" y="192" width="4" height="60" fill="#90ed7d" class="highcharts-point highcharts-color-2"></rect><rect x="496" y="201" width="4" height="51" fill="#90ed7d" class="highcharts-point highcharts-color-2"></rect></g><g class="highcharts-markers highcharts-series-2 highcharts-column-series highcharts-color-2 " transform="translate(74,71) scale(1 1)" clip-path="none"></g><g class="highcharts-series highcharts-series-3 highcharts-column-series highcharts-color-3 " transform="translate(74,71) scale(1 1)" clip-path="url(#highcharts-c43whu1-9)"><rect x="29" y="209" width="4" height="43" fill="#f7a35c" class="highcharts-point highcharts-color-3"></rect><rect x="72" y="219" width="4" height="33" fill="#f7a35c" class="highcharts-point highcharts-color-3"></rect><rect x="115" y="217" width="4" height="35" fill="#f7a35c" class="highcharts-point highcharts-color-3"></rect><rect x="158" y="212" width="4" height="40" fill="#f7a35c" class="highcharts-point highcharts-color-3"></rect><rect x="201" y="199" width="4" height="53" fill="#f7a35c" class="highcharts-point highcharts-color-3"></rect><rect x="244" y="176" width="4" height="76" fill="#f7a35c" class="highcharts-point highcharts-color-3"></rect><rect x="287" y="194" width="4" height="58" fill="#f7a35c" class="highcharts-point highcharts-color-3"></rect><rect x="330" y="191" width="4" height="61" fill="#f7a35c" class="highcharts-point highcharts-color-3"></rect><rect x="373" y="204" width="4" height="48" fill="#f7a35c" class="highcharts-point highcharts-color-3"></rect><rect x="416" y="213" width="4" height="39" fill="#f7a35c" class="highcharts-point highcharts-color-3"></rect><rect x="459" y="205" width="4" height="47" fill="#f7a35c" class="highcharts-point highcharts-color-3"></rect><rect x="502" y="201" width="4" height="51" fill="#f7a35c" class="highcharts-point highcharts-color-3"></rect></g><g class="highcharts-markers highcharts-series-3 highcharts-column-series highcharts-color-3 " transform="translate(74,71) scale(1 1)" clip-path="none"></g></g><text x="300" text-anchor="middle" class="highcharts-title" style="color:#333333;font-size:18px;fill:#333333;" y="24"><tspan>Monthly Average Rainfall</tspan></text><text x="300" text-anchor="middle" class="highcharts-subtitle" style="color:#666666;fill:#666666;" y="52"><tspan>Source: WorldClimate.com</tspan></text><g class="highcharts-legend" transform="translate(131,356)"><rect fill="none" class="highcharts-legend-box" rx="0" ry="0" x="0" y="0" width="337" height="29" visibility="visible"></rect><g><g><g class="highcharts-legend-item highcharts-column-series highcharts-color-0 highcharts-series-0" transform="translate(8,3)"><text x="21" style="color:#333333;font-size:12px;font-weight:bold;cursor:pointer;fill:#333333;" text-anchor="start" y="15">Tokyo</text><rect x="2" y="4" width="12" height="12" fill="#7cb5ec" rx="6" ry="6" class="highcharts-point"></rect></g><g class="highcharts-legend-item highcharts-column-series highcharts-color-1 highcharts-series-1" transform="translate(88.203125,3)"><text x="21" y="15" style="color:#333333;font-size:12px;font-weight:bold;cursor:pointer;fill:#333333;" text-anchor="start"><tspan>New York</tspan></text><rect x="2" y="4" width="12" height="12" fill="#434348" rx="6" ry="6" class="highcharts-point"></rect></g><g class="highcharts-legend-item highcharts-column-series highcharts-color-2 highcharts-series-2" transform="translate(187.984375,3)"><text x="21" y="15" style="color:#333333;font-size:12px;font-weight:bold;cursor:pointer;fill:#333333;" text-anchor="start">London</text><rect x="2" y="4" width="12" height="12" fill="#90ed7d" rx="6" ry="6" class="highcharts-point"></rect></g><g class="highcharts-legend-item highcharts-column-series highcharts-color-3 highcharts-series-3" transform="translate(274.3125,3)"><text x="21" y="15" style="color:#333333;font-size:12px;font-weight:bold;cursor:pointer;fill:#333333;" text-anchor="start">Berlin</text><rect x="2" y="4" width="12" height="12" fill="#f7a35c" rx="6" ry="6" class="highcharts-point"></rect></g></g></g></g><g class="highcharts-axis-labels highcharts-xaxis-labels "><text x="95.5" style="color:#666666;cursor:default;font-size:11px;fill:#666666;" text-anchor="middle" transform="translate(0,0)" y="341" opacity="1">Jan</text><text x="138.5" style="color:#666666;cursor:default;font-size:11px;fill:#666666;" text-anchor="middle" transform="translate(0,0)" y="341" opacity="1">Feb</text><text x="181.5" style="color:#666666;cursor:default;font-size:11px;fill:#666666;" text-anchor="middle" transform="translate(0,0)" y="341" opacity="1">Mar</text><text x="224.5" style="color:#666666;cursor:default;font-size:11px;fill:#666666;" text-anchor="middle" transform="translate(0,0)" y="341" opacity="1">Apr</text><text x="267.5" style="color:#666666;cursor:default;font-size:11px;fill:#666666;" text-anchor="middle" transform="translate(0,0)" y="341" opacity="1">May</text><text x="310.5" style="color:#666666;cursor:default;font-size:11px;fill:#666666;" text-anchor="middle" transform="translate(0,0)" y="341" opacity="1">Jun</text><text x="353.5" style="color:#666666;cursor:default;font-size:11px;fill:#666666;" text-anchor="middle" transform="translate(0,0)" y="341" opacity="1">Jul</text><text x="396.5" style="color:#666666;cursor:default;font-size:11px;fill:#666666;" text-anchor="middle" transform="translate(0,0)" y="341" opacity="1">Aug</text><text x="439.5" style="color:#666666;cursor:default;font-size:11px;fill:#666666;" text-anchor="middle" transform="translate(0,0)" y="341" opacity="1">Sep</text><text x="482.5" style="color:#666666;cursor:default;font-size:11px;fill:#666666;" text-anchor="middle" transform="translate(0,0)" y="341" opacity="1">Oct</text><text x="525.5" style="color:#666666;cursor:default;font-size:11px;fill:#666666;" text-anchor="middle" transform="translate(0,0)" y="341" opacity="1">Nov</text><text x="568.5" style="color:#666666;cursor:default;font-size:11px;fill:#666666;" text-anchor="middle" transform="translate(0,0)" y="341" opacity="1">Dec</text></g><g class="highcharts-axis-labels highcharts-yaxis-labels "><text x="59" style="color:#666666;cursor:default;font-size:11px;fill:#666666;" text-anchor="end" transform="translate(0,0)" y="326" opacity="1"><tspan>0</tspan></text><text x="59" style="color:#666666;cursor:default;font-size:11px;fill:#666666;" text-anchor="end" transform="translate(0,0)" y="276" opacity="1"><tspan>50</tspan></text><text x="59" style="color:#666666;cursor:default;font-size:11px;fill:#666666;" text-anchor="end" transform="translate(0,0)" y="226" opacity="1"><tspan>100</tspan></text><text x="59" style="color:#666666;cursor:default;font-size:11px;fill:#666666;" text-anchor="end" transform="translate(0,0)" y="175" opacity="1"><tspan>150</tspan></text><text x="59" style="color:#666666;cursor:default;font-size:11px;fill:#666666;" text-anchor="end" transform="translate(0,0)" y="125" opacity="1"><tspan>200</tspan></text><text x="59" style="color:#666666;cursor:default;font-size:11px;fill:#666666;" text-anchor="end" transform="translate(0,0)" y="75" opacity="1"><tspan>250</tspan></text></g><text x="590" class="highcharts-credits" text-anchor="end" style="cursor:pointer;color:#999999;font-size:9px;fill:#999999;" y="395"></text></svg>