<?xml version="1.0" standalone="no"?><!DOCTYPE svg PUBLIC "-//W3C//DTD SVG 1.1//EN" "http://www.w3.org/Graphics/SVG/1.1/DTD/svg11.dtd"><svg xmlns:xlink="http://www.w3.org/1999/xlink" version="1.1" class="highcharts-root" style="font-family:&quot;Open Sans&quot;, arial, helvetica, sans-serif;font-size:12px;" xmlns="http://www.w3.org/2000/svg" width="600" height="400"><desc>Created with Highcharts 5.0.7</desc><defs><clipPath id="highcharts-uj9qrv4-7"><rect x="0" y="0" width="516" height="251" fill="none"></rect></clipPath></defs><rect fill="#ffffff" class="highcharts-background" x="0" y="0" width="600" height="400" rx="0" ry="0"></rect><rect fill="none" class="highcharts-plot-background" x="74" y="71" width="516" height="251"></rect><g class="highcharts-grid highcharts-xaxis-grid "><path fill="none" class="highcharts-grid-line" d="M 78.5 71 L 78.5 322" opacity="1"></path><path fill="none" class="highcharts-grid-line" d="M 155.5 71 L 155.5 322" opacity="1"></path><path fill="none" class="highcharts-grid-line" d="M 231.5 71 L 231.5 322" opacity="1"></path><path fill="none" class="highcharts-grid-line" d="M 308.5 71 L 308.5 322" opacity="1"></path><path fill="none" class="highcharts-grid-line" d="M 385.5 71 L 385.5 322" opacity="1"></path><path fill="none" class="highcharts-grid-line" d="M 461.5 71 L 461.5 322" opacity="1"></path><path fill="none" class="highcharts-grid-line" d="M 538.5 71 L 538.5 322" opacity="1"></path></g><g class="highcharts-grid highcharts-yaxis-grid "><path fill="none" stroke="#e6e6e6" stroke-width="1" class="highcharts-grid-line" d="M 74 322.5 L 590 322.5" opacity="1"></path><path fill="none" stroke="#e6e6e6" stroke-width="1" class="highcharts-grid-line" d="M 74 272.5 L 590 272.5" opacity="1"></path><path fill="none" stroke="#e6e6e6" stroke-width="1" class="highcharts-grid-line" d="M 74 222.5 L 590 222.5" opacity="1"></path><path fill="none" stroke="#e6e6e6" stroke-width="1" class="highcharts-grid-line" d="M 74 171.5 L 590 171.5" opacity="1"></path><path fill="none" stroke="#e6e6e6" stroke-width="1" class="highcharts-grid-line" d="M 74 121.5 L 590 121.5" opacity="1"></path><path fill="none" stroke="#e6e6e6" stroke-width="1" class="highcharts-grid-line" d="M 74 70.5 L 590 70.5" opacity="1"></path></g><rect fill="none" class="highcharts-plot-border" x="74" y="71" width="516" height="251"></rect><g class="highcharts-axis highcharts-xaxis "><path fill="none" class="highcharts-tick" stroke="#ccd6eb" stroke-width="1" d="M 78.5 322 L 78.5 332" opacity="1"></path><path fill="none" class="highcharts-tick" stroke="#ccd6eb" stroke-width="1" d="M 155.5 322 L 155.5 332" opacity="1"></path><path fill="none" class="highcharts-tick" stroke="#ccd6eb" stroke-width="1" d="M 231.5 322 L 231.5 332" opacity="1"></path><path fill="none" class="highcharts-tick" stroke="#ccd6eb" stroke-width="1" d="M 308.5 322 L 308.5 332" opacity="1"></path><path fill="none" class="highcharts-tick" stroke="#ccd6eb" stroke-width="1" d="M 385.5 322 L 385.5 332" opacity="1"></path><path fill="none" class="highcharts-tick" stroke="#ccd6eb" stroke-width="1" d="M 461.5 322 L 461.5 332" opacity="1"></path><path fill="none" class="highcharts-tick" stroke="#ccd6eb" stroke-width="1" d="M 538.5 322 L 538.5 332" opacity="1"></path><path fill="none" class="highcharts-axis-line" stroke="#ccd6eb" stroke-width="1" d="M 74 322.5 L 590 322.5"></path></g><g class="highcharts-axis highcharts-yaxis "><text x="28.09375" text-anchor="middle" transform="translate(0,0) rotate(270 28.09375 196.5)" class="highcharts-axis-title" style="color:#666666;fill:#666666;" y="196.5"><tspan>Nuclear weapon states</tspan></text><path fill="none" class="highcharts-axis-line" d="M 74 71 L 74 322"></path></g><g class="highcharts-series-group"><g class="highcharts-series highcharts-series-0 highcharts-area-series highcharts-color-0 " transform="translate(74,71) scale(1 1)" clip-path="url(#highcharts-uj9qrv4-7)"><path fill="rgb(124,181,236)" fill-opacity="0.75" d="M 43.383244206774 251 L 43.383244206774 250.96988 L 51.048128342246 250.94478 L 58.713012477719 250.83936 L 66.377896613191 250.4478 L 74.042780748664 249.8203 L 81.707664884136 249.14762 L 89.372549019608 247.7872 L 97.037433155081 245.9549 L 104.70231729055 243.79128 L 112.36720142603 240.64374 L 120.0320855615 235.65386 L 127.69696969697 227.81764 L 135.36185383244 218.65112 L 143.02673796791 201.69356 L 150.69162210339 173.35064 L 158.35650623886 148.42131999999998 L 166.02139037433 129.88747999999998 L 173.6862745098 113.51726 L 181.35115864528 103.11581999999999 L 189.01604278075 95.09888000000001 L 196.68092691622 90.45035999999999 L 204.34581105169 90.1592 L 212.01069518717 94.21034 L 219.67557932264 104.29551999999998 L 227.34046345811 113.74315999999999 L 235.00534759358 117.15675999999999 L 242.67023172906 115.68088 L 250.33511586453 110.88175999999999 L 258 105.42501999999999 L 265.66488413547 105.5957 L 273.32976827094 111.31348 L 280.99465240642 122.59342000000001 L 288.65953654189 121.87556000000001 L 296.32442067736 126.37348 L 303.98930481283 127.4829 L 311.65418894831 128.99392 L 319.31907308378 133.21071999999998 L 326.98395721925 131.98584 L 334.64884135472 130.02302 L 342.3137254902 128.72786 L 349.97860962567 129.33026 L 357.64349376114 128.50698 L 365.30837789661 128.79312 L 372.97326203209 132.59828 L 380.63814616756 138.6524 L 388.30303030303 145.55991999999998 L 395.9679144385 164.21926 L 403.63279857397 176.97006 L 411.29768270945 185.35848 L 418.96256684492 187.97390000000001 L 426.62745098039 190.03712000000002 L 434.29233511586 195.73482 L 441.95721925134 196.031 L 449.62210338681 196.42758 L 457.28698752228 196.66352 L 464.95187165775 197.90346 L 472.61675579323 198.15446 L 480.2816399287 198.4155 L 487.94652406417 198.68658 L 495.61140819964 199.00284 L 503.27629233512 199.3191 L 510.94117647059 200.27792 L 510.94117647059 251 L 503.27629233512 251 L 495.61140819964 251 L 487.94652406417 251 L 480.2816399287 251 L 472.61675579323 251 L 464.95187165775 251 L 457.28698752228 251 L 449.62210338681 251 L 441.95721925134 251 L 434.29233511586 251 L 426.62745098039 251 L 418.96256684492 251 L 411.29768270945 251 L 403.63279857397 251 L 395.9679144385 251 L 388.30303030303 251 L 380.63814616756 251 L 372.97326203209 251 L 365.30837789661 251 L 357.64349376114 251 L 349.97860962567 251 L 342.3137254902 251 L 334.64884135472 251 L 326.98395721925 251 L 319.31907308378 251 L 311.65418894831 251 L 303.98930481283 251 L 296.32442067736 251 L 288.65953654189 251 L 280.99465240642 251 L 273.32976827094 251 L 265.66488413547 251 L 258 251 L 250.33511586453 251 L 242.67023172906 251 L 235.00534759358 251 L 227.34046345811 251 L 219.67557932264 251 L 212.01069518717 251 L 204.34581105169 251 L 196.68092691622 251 L 189.01604278075 251 L 181.35115864528 251 L 173.6862745098 251 L 166.02139037433 251 L 158.35650623886 251 L 150.69162210339 251 L 143.02673796791 251 L 135.36185383244 251 L 127.69696969697 251 L 120.0320855615 251 L 112.36720142603 251 L 104.70231729055 251 L 97.037433155081 251 L 89.372549019608 251 L 81.707664884136 251 L 74.042780748664 251 L 66.377896613191 251 L 58.713012477719 251 L 51.048128342246 251 L 43.383244206774 251 L 43.383244206774 251" class="highcharts-area"></path><path fill="none" d="M 43.383244206774 250.96988 L 51.048128342246 250.94478 L 58.713012477719 250.83936 L 66.377896613191 250.4478 L 74.042780748664 249.8203 L 81.707664884136 249.14762 L 89.372549019608 247.7872 L 97.037433155081 245.9549 L 104.70231729055 243.79128 L 112.36720142603 240.64374 L 120.0320855615 235.65386 L 127.69696969697 227.81764 L 135.36185383244 218.65112 L 143.02673796791 201.69356 L 150.69162210339 173.35064 L 158.35650623886 148.42131999999998 L 166.02139037433 129.88747999999998 L 173.6862745098 113.51726 L 181.35115864528 103.11581999999999 L 189.01604278075 95.09888000000001 L 196.68092691622 90.45035999999999 L 204.34581105169 90.1592 L 212.01069518717 94.21034 L 219.67557932264 104.29551999999998 L 227.34046345811 113.74315999999999 L 235.00534759358 117.15675999999999 L 242.67023172906 115.68088 L 250.33511586453 110.88175999999999 L 258 105.42501999999999 L 265.66488413547 105.5957 L 273.32976827094 111.31348 L 280.99465240642 122.59342000000001 L 288.65953654189 121.87556000000001 L 296.32442067736 126.37348 L 303.98930481283 127.4829 L 311.65418894831 128.99392 L 319.31907308378 133.21071999999998 L 326.98395721925 131.98584 L 334.64884135472 130.02302 L 342.3137254902 128.72786 L 349.97860962567 129.33026 L 357.64349376114 128.50698 L 365.30837789661 128.79312 L 372.97326203209 132.59828 L 380.63814616756 138.6524 L 388.30303030303 145.55991999999998 L 395.9679144385 164.21926 L 403.63279857397 176.97006 L 411.29768270945 185.35848 L 418.96256684492 187.97390000000001 L 426.62745098039 190.03712000000002 L 434.29233511586 195.73482 L 441.95721925134 196.031 L 449.62210338681 196.42758 L 457.28698752228 196.66352 L 464.95187165775 197.90346 L 472.61675579323 198.15446 L 480.2816399287 198.4155 L 487.94652406417 198.68658 L 495.61140819964 199.00284 L 503.27629233512 199.3191 L 510.94117647059 200.27792" class="highcharts-graph" stroke="#7cb5ec" stroke-width="2" stroke-linejoin="round" stroke-linecap="round"></path></g><g class="highcharts-markers highcharts-series-0 highcharts-area-series highcharts-color-0 " transform="translate(74,71) scale(1 1)" clip-path="none"></g><g class="highcharts-series highcharts-series-1 highcharts-area-series highcharts-color-1 " transform="translate(74,71) scale(1 1)" clip-path="url(#highcharts-uj9qrv4-7)"><path fill="rgb(67,67,72)" fill-opacity="0.75" d="M 81.707664884136 251 L 81.707664884136 250.9749 L 89.372549019608 250.8745 L 97.037433155081 250.749 L 104.70231729055 250.3976 L 112.36720142603 250.247 L 120.0320855615 249.996 L 127.69696969697 248.86148 L 135.36185383244 247.6868 L 143.02673796791 246.63762 L 150.69162210339 245.6788 L 158.35650623886 242.9429 L 166.02139037433 238.59558 L 173.6862745098 234.32356 L 181.35115864528 229.72523999999999 L 189.01604278075 224.79058 L 196.68092691622 220.23242 L 204.34581105169 215.41322 L 212.01069518717 209.13822 L 219.67557932264 203.81702 L 227.34046345811 198.09924 L 235.00534759358 192.55214 L 242.67023172906 185.27816 L 250.33511586453 178.32044 L 258 171.1067 L 265.66488413547 163.7273 L 273.32976827094 155.3439 L 280.99465240642 144.5509 L 288.65953654189 135.31912 L 296.32442067736 123.52714 L 303.98930481283 110.7663 L 311.65418894831 100.08876000000001 L 319.31907308378 90.11401999999998 L 326.98395721925 80.56096 L 334.64884135472 71.26391999999998 L 342.3137254902 63.09637999999998 L 349.97860962567 54.231059999999985 L 357.64349376114 25.099999999999994 L 365.30837789661 35.139999999999986 L 372.97326203209 45.18000000000001 L 380.63814616756 55.22 L 388.30303030303 65.25999999999999 L 395.9679144385 75.29999999999998 L 403.63279857397 85.34 L 411.29768270945 95.38 L 418.96256684492 105.41999999999999 L 426.62745098039 115.46000000000001 L 434.29233511586 125.5 L 441.95721925134 130.51999999999998 L 449.62210338681 135.54 L 457.28698752228 140.56 L 464.95187165775 145.57999999999998 L 472.61675579323 150.6 L 480.2816399287 155.62 L 487.94652406417 160.64 L 495.61140819964 160.64 L 503.27629233512 165.66 L 510.94117647059 170.68 L 510.94117647059 251 L 503.27629233512 251 L 495.61140819964 251 L 487.94652406417 251 L 480.2816399287 251 L 472.61675579323 251 L 464.95187165775 251 L 457.28698752228 251 L 449.62210338681 251 L 441.95721925134 251 L 434.29233511586 251 L 426.62745098039 251 L 418.96256684492 251 L 411.29768270945 251 L 403.63279857397 251 L 395.9679144385 251 L 388.30303030303 251 L 380.63814616756 251 L 372.97326203209 251 L 365.30837789661 251 L 357.64349376114 251 L 349.97860962567 251 L 342.3137254902 251 L 334.64884135472 251 L 326.98395721925 251 L 319.31907308378 251 L 311.65418894831 251 L 303.98930481283 251 L 296.32442067736 251 L 288.65953654189 251 L 280.99465240642 251 L 273.32976827094 251 L 265.66488413547 251 L 258 251 L 250.33511586453 251 L 242.67023172906 251 L 235.00534759358 251 L 227.34046345811 251 L 219.67557932264 251 L 212.01069518717 251 L 204.34581105169 251 L 196.68092691622 251 L 189.01604278075 251 L 181.35115864528 251 L 173.6862745098 251 L 166.02139037433 251 L 158.35650623886 251 L 150.69162210339 251 L 143.02673796791 251 L 135.36185383244 251 L 127.69696969697 251 L 120.0320855615 251 L 112.36720142603 251 L 104.70231729055 251 L 97.037433155081 251 L 89.372549019608 251 L 81.707664884136 251 L 81.707664884136 251" class="highcharts-area"></path><path fill="none" d="M 81.707664884136 250.9749 L 89.372549019608 250.8745 L 97.037433155081 250.749 L 104.70231729055 250.3976 L 112.36720142603 250.247 L 120.0320855615 249.996 L 127.69696969697 248.86148 L 135.36185383244 247.6868 L 143.02673796791 246.63762 L 150.69162210339 245.6788 L 158.35650623886 242.9429 L 166.02139037433 238.59558 L 173.6862745098 234.32356 L 181.35115864528 229.72523999999999 L 189.01604278075 224.79058 L 196.68092691622 220.23242 L 204.34581105169 215.41322 L 212.01069518717 209.13822 L 219.67557932264 203.81702 L 227.34046345811 198.09924 L 235.00534759358 192.55214 L 242.67023172906 185.27816 L 250.33511586453 178.32044 L 258 171.1067 L 265.66488413547 163.7273 L 273.32976827094 155.3439 L 280.99465240642 144.5509 L 288.65953654189 135.31912 L 296.32442067736 123.52714 L 303.98930481283 110.7663 L 311.65418894831 100.08876000000001 L 319.31907308378 90.11401999999998 L 326.98395721925 80.56096 L 334.64884135472 71.26391999999998 L 342.3137254902 63.09637999999998 L 349.97860962567 54.231059999999985 L 357.64349376114 25.099999999999994 L 365.30837789661 35.139999999999986 L 372.97326203209 45.18000000000001 L 380.63814616756 55.22 L 388.30303030303 65.25999999999999 L 395.9679144385 75.29999999999998 L 403.63279857397 85.34 L 411.29768270945 95.38 L 418.96256684492 105.41999999999999 L 426.62745098039 115.46000000000001 L 434.29233511586 125.5 L 441.95721925134 130.51999999999998 L 449.62210338681 135.54 L 457.28698752228 140.56 L 464.95187165775 145.57999999999998 L 472.61675579323 150.6 L 480.2816399287 155.62 L 487.94652406417 160.64 L 495.61140819964 160.64 L 503.27629233512 165.66 L 510.94117647059 170.68" class="highcharts-graph" stroke="#434348" stroke-width="2" stroke-linejoin="round" stroke-linecap="round"></path></g><g class="highcharts-markers highcharts-series-1 highcharts-area-series highcharts-color-1 " transform="translate(74,71) scale(1 1)" clip-path="none"></g></g><text x="300" text-anchor="middle" class="highcharts-title" style="color:#333333;font-size:18px;fill:#333333;" y="24"><tspan>US and USSR nuclear stockpiles</tspan></text><text x="300" text-anchor="middle" class="highcharts-subtitle" style="color:#666666;fill:#666666;" y="52"><tspan>Source: </tspan><tspan dx="0">thebulletin.metapress.com</tspan></text><g class="highcharts-legend" transform="translate(210,356)"><rect fill="none" class="highcharts-legend-box" rx="0" ry="0" x="0" y="0" width="179" height="29" visibility="visible"></rect><g><g><g class="highcharts-legend-item highcharts-area-series highcharts-color-0 highcharts-series-0" transform="translate(8,3)"><text x="21" style="color:#333333;font-size:12px;font-weight:bold;cursor:pointer;fill:#333333;" text-anchor="start" y="15">USA</text><rect x="2" y="4" width="12" height="12" fill="#7cb5ec" rx="6" ry="6" class="highcharts-point"></rect></g><g class="highcharts-legend-item highcharts-area-series highcharts-color-1 highcharts-series-1" transform="translate(74.25,3)"><text x="21" y="15" style="color:#333333;font-size:12px;font-weight:bold;cursor:pointer;fill:#333333;" text-anchor="start">USSR/Russia</text><rect x="2" y="4" width="12" height="12" fill="#434348" rx="6" ry="6" class="highcharts-point"></rect></g></g></g></g><g class="highcharts-axis-labels highcharts-xaxis-labels "><text x="79.05882352941238" style="color:#666666;cursor:default;font-size:11px;fill:#666666;" text-anchor="middle" transform="translate(0,0)" y="341" opacity="1"><tspan>1940</tspan></text><text x="155.7076648841359" style="color:#666666;cursor:default;font-size:11px;fill:#666666;" text-anchor="middle" transform="translate(0,0)" y="341" opacity="1"><tspan>1950</tspan></text><text x="232.35650623885942" style="color:#666666;cursor:default;font-size:11px;fill:#666666;" text-anchor="middle" transform="translate(0,0)" y="341" opacity="1"><tspan>1960</tspan></text><text x="309.00534759358294" style="color:#666666;cursor:default;font-size:11px;fill:#666666;" text-anchor="middle" transform="translate(0,0)" y="341" opacity="1"><tspan>1970</tspan></text><text x="385.65418894830646" style="color:#666666;cursor:default;font-size:11px;fill:#666666;" text-anchor="middle" transform="translate(0,0)" y="341" opacity="1"><tspan>1980</tspan></text><text x="462.30303030302997" style="color:#666666;cursor:default;font-size:11px;fill:#666666;" text-anchor="middle" transform="translate(0,0)" y="341" opacity="1"><tspan>1990</tspan></text><text x="538.9518716577536" style="color:#666666;cursor:default;font-size:11px;fill:#666666;" text-anchor="middle" transform="translate(0,0)" y="341" opacity="1"><tspan>2000</tspan></text></g><g class="highcharts-axis-labels highcharts-yaxis-labels "><text x="59" style="color:#666666;cursor:default;font-size:11px;fill:#666666;" text-anchor="end" transform="translate(0,0)" y="326" opacity="1"><tspan>0k</tspan></text><text x="59" style="color:#666666;cursor:default;font-size:11px;fill:#666666;" text-anchor="end" transform="translate(0,0)" y="276" opacity="1"><tspan>10k</tspan></text><text x="59" style="color:#666666;cursor:default;font-size:11px;fill:#666666;" text-anchor="end" transform="translate(0,0)" y="226" opacity="1"><tspan>20k</tspan></text><text x="59" style="color:#666666;cursor:default;font-size:11px;fill:#666666;" text-anchor="end" transform="translate(0,0)" y="175" opacity="1"><tspan>30k</tspan></text><text x="59" style="color:#666666;cursor:default;font-size:11px;fill:#666666;" text-anchor="end" transform="translate(0,0)" y="125" opacity="1"><tspan>40k</tspan></text><text x="59" style="color:#666666;cursor:default;font-size:11px;fill:#666666;" text-anchor="end" transform="translate(0,0)" y="75" opacity="1"><tspan>50k</tspan></text></g><text x="590" class="highcharts-credits" text-anchor="end" style="cursor:pointer;color:#999999;font-size:9px;fill:#999999;" y="395"></text></svg>