<svg id="Layer_1" data-name="Layer 1" xmlns="http://www.w3.org/2000/svg" viewBox="0 0 100.2 113.4"><defs><style>.cls-1{fill:#fff;}</style></defs><title>observer svg_white_icon</title><path class="cls-1" d="M367.1,479.6c-8.7,0-18.5-4-24.2-9.8a34.7,34.7,0,0,1-7.4-39.8,26.2,26.2,0,0,1,3-5.1,28,28,0,0,1,5.9-6.5,30.7,30.7,0,0,1,7.4-4.9,35,35,0,0,1,35.7,3.1c16.9,12.3,18.5,36.7,6.4,50.2-4.1,4.6-6.4,6.7-12.5,9.6a37.2,37.2,0,0,1-14.3,3.2Zm-22-52.6h-.4l.3.4V427c6.6-4.5,13.4-7.5,22.4-5.7,23.2,4.8,27.3,31.9,15.4,44.2a35.3,35.3,0,0,1-5.8,5.1c-1.1.7-1.4.6-2.1,1.5,12.4-2.8,22.3-16.9,20.4-30.8a28.2,28.2,0,0,0-4.8-12.5c-5.4-8.1-12.2-11.1-21.8-12.5S346.1,422.7,345,427Zm20.1,64.9c6.4,0,13.3-.6,18.3-3,1.8,2.7,10,11.9,12,12.8,3.9,1.7,4.6-.8,6.6,1.5l3,3.4c2.8,3.4,2.9,4.4,6.8,4.4s7.9-4.3,7.9-7.9-5.3-7.2-7-9.4,3.5-3.7-4.4-11.7l-5.4-6.5c3.2-4.8,4.6-5.4,7.5-12.2a47.8,47.8,0,0,0-1-39.2,47.1,47.1,0,0,0-6.8-10.3c-6.2-6.4-7.9-7.9-16.5-12.2-11.5-5.7-26.8-5-38.1,0a46.8,46.8,0,0,0-19.5,15.7,55.9,55.9,0,0,0-4.3,7.5c-2.7,5.4-4,11.7-4.6,19-.5,5.6,1.8,14.2,3.8,19.3,4.3,10.7,12.9,19,22.9,24.1a45.4,45.4,0,0,0,18.8,4.7Z" transform="translate(-319.6 -397.6)"/></svg>