<svg id="Layer_1" data-name="Layer 1" xmlns="http://www.w3.org/2000/svg" viewBox="0 0 579.1 126"><defs><style>.cls-1{fill:#fff;}</style></defs><title>observer svg_white</title><path class="cls-1" d="M161.4,82.1c-8.7,0-18.5-4-24.2-9.8a35.7,35.7,0,0,1-7.1-9.7,36,36,0,0,1-.3-30.1,26.2,26.2,0,0,1,3-5.1,28,28,0,0,1,5.9-6.5,30.7,30.7,0,0,1,7.4-4.9,35,35,0,0,1,35.7,3.1c16.9,12.3,18.5,36.7,6.4,50.2-4.1,4.6-6.4,6.7-12.5,9.6a37.2,37.2,0,0,1-14.3,3.2Zm-22-52.6H139l.3.4v-.4c6.6-4.5,13.4-7.5,22.4-5.7C184.9,28.6,189,55.7,177.1,68a35.3,35.3,0,0,1-5.8,5.1c-1.1.7-1.4.6-2.1,1.5,12.4-2.8,22.3-16.9,20.4-30.8a28.2,28.2,0,0,0-4.8-12.5c-5.4-8.1-12.2-11.1-21.8-12.5s-22.6,6.4-23.7,10.7Zm119.5,22V53c0,11.5,17.9,12.5,17.9,19.8,0,9.4-12.1,5.2-17.9,5.2v3.4c3.9,0,11.5,2.4,17.9.6,9-2.5,15-13.1,1-22.5-4-2.7-10.7-4.9-10.7-9.5,0-7.2,11.3-4.9,16.4-4.9V42.2c-6.3-1.5-14.5-2.1-20.1,1.5-2.1,1.4-4.5,4.4-4.5,7.8Zm136.7-3V75.4c0,4.2,2.2,7.1,6.3,7.1h22.8c0-5,1-3.8-11.9-3.8-6.4,0-7.8,1-8.3-1.7s-.3-11.1-.3-13.9h16V59.3h-16c0-6.9-1.4-14.2,3.3-14.2h16.1V41.4H403.4C398.9,41.4,395.6,43.9,395.6,48.5Zm-106.1.8V75.4c0,4.1,2.3,7.1,6.4,7.1h22.7c0-4.8,1.1-3.8-10-3.8-4.1,0-10.1.9-10.1-1.4V63.1h15.7V59.3H298.5V47.4c0-1.2,1.6-2.3,3-2.3h16V41.4H297.4C292.4,41.4,289.5,44.3,289.5,49.3Zm103.8-7.9h-4.5L378,75c-.5,1.3-.1,1.1-1.1,1.9s-1.2-.3-2.1-3.6l-4.1-13.8c-.9-3.2-1.7-5.7-2.6-8.9s-2.1-6.1-2.8-9.2H356c.9,4,2.3,7.8,3.5,11.8l7,23.6c2.9,9.5,12.6,9.6,15.6-.7Zm35.9,41.1h8.6V44.8h6.3c8.2,0,9.4,10,6.4,14.2a5.9,5.9,0,0,1-3.7,2.2c-6,1.6-5.8-1.4-2.5,5.1s5.2,10.9,8,16.2h10.5L451.6,62.3c4.5-.1,9-4.4,9-8.9s-.2-7-4.5-9.7-19.2-2.3-26.9-2.3Zm-106.1,0h8.6V44.8c4.8,0,8.9-.7,11.9,2.3s3,10.6-.2,13.1-4.2,1.4-7.2,1.4c.2,1.8,3.9,8.5,4.8,10.4,1.8,3.5,3.5,7.1,5.3,10.5h10.4c-.3-1.2-4.6-8.5-5.6-10.1-1.9-3.4-3.8-6.6-5.6-10.1a9.7,9.7,0,0,0,7.2-3.9c4.3-5.8,2.7-17-12.4-17H323.1Zm-92.2-3.4a34.3,34.3,0,0,1-5.6-.7V44.8c6-1.4,12.6-.1,16.3,4.9,6.5,8.6,5.8,29.4-10.7,29.4Zm-14.2,3.4c8.3,0,18.7.8,25.7-1.6s8.4-5,10.9-10c3.7-7.5,1.7-18.4-4-24.4s-11.2-5.8-18.4-5.8c-2.5,0-3.3.3-5.6.3V13.4h-8.6ZM159.5,94.4c6.4,0,13.3-.6,18.3-3,1.8,2.7,10,11.9,12,12.8,3.9,1.7,4.6-.8,6.6,1.5l3,3.4c2.8,3.4,2.9,4.4,6.8,4.4s7.9-4.3,7.9-7.9-5.3-7.2-7-9.4,3.5-3.7-4.4-11.7L197.3,78c3.2-4.8,4.6-5.4,7.5-12.2a47.8,47.8,0,0,0-1-39.2A47.1,47.1,0,0,0,197,16.3c-6.2-6.4-7.9-7.9-16.5-12.2-11.5-5.7-26.8-5-38.1,0a47.5,47.5,0,0,0-19.5,15.7,55.9,55.9,0,0,0-4.3,7.5c-2.7,5.4-4,11.7-4.6,19-.5,5.6,1.8,14.2,3.8,19.3,4.3,10.7,12.9,19,22.9,24.1a45.4,45.4,0,0,0,18.8,4.7Z" transform="translate(0 -0.1)"/><polygon class="cls-1" points="39.2 82 47.8 82 47.8 61.1 63.5 61.1 63.5 82 72.1 82 72.1 41.3 63.5 41.3 63.5 57.3 47.8 57.3 47.8 13.6 39.2 13.6 39.2 82"/><polygon class="cls-1" points="0 24.8 12.7 24.8 12.7 82 24.3 82 24.3 24.8 37 24.8 37 20.4 0 20.4 0 24.8"/><path class="cls-1" d="M78.5,48.1v28a5.8,5.8,0,0,0,5.8,6h22.6V78.4H88.6c-1.2,0-1.5-1.1-1.5-2.3v-13h14.5c1.5,0,1.1-1.1,1.1-3.8H87.1c0-17-3.4-14.2,19-14.2V41.4H86.3C81.9,41.4,78.5,43.8,78.5,48.1Z" transform="translate(0 -0.1)"/><path class="cls-1" d="M231,119.5h4v-9.1l8.6-14h-4.5l-6,10.3L227,96.4h-4.7l8.7,14Zm19.1.4c5.3,0,8.4-3.6,8.4-8.8s-3.1-8.8-8.4-8.8-8.5,3.7-8.5,8.8S244.7,119.9,250.1,119.9Zm0-2.9c-3.3,0-4.8-3-4.8-5.9s1.5-5.9,4.8-5.9,4.7,3,4.7,5.9S253.4,117,250.1,117Zm26.1-14.2h-3.6v9.7c0,2.6-1.1,4.5-4.1,4.5s-3.3-1-3.3-3.9V102.8h-3.6v10.6c0,4.4,1.8,6.5,6.2,6.5a6.3,6.3,0,0,0,4.8-2.7h0v2.3h3.6Zm3.9,16.7h3.7v-7.9c0-3.8,2-5.8,4.5-5.8l1.6.2v-3.6h-1.4a5.5,5.5,0,0,0-4.9,3.7h0v-3.2h-3.5Zm40.5-15.8c-.5-4.9-4.5-7.8-9.8-7.8-6.9,0-11.1,5.5-11.1,12.1s4.2,12,11.1,12,9.5-3.8,9.9-9.3h-4c-.4,3.4-2.3,6.1-5.9,6.1s-7-4.4-7-8.8,2.1-8.8,7-8.8a5.4,5.4,0,0,1,5.7,4.5Zm3.3,15.8h3.7V96.4h-3.7Zm15.3.4c5.4,0,8.5-3.6,8.5-8.8s-3.1-8.8-8.5-8.8-8.4,3.7-8.4,8.8S333.9,119.9,339.2,119.9Zm0-2.9c-3.2,0-4.7-3-4.7-5.9s1.5-5.9,4.7-5.9,4.8,3,4.8,5.9S342.5,117,339.2,117Zm26.2-14.2h-3.7v9.7c0,2.6-1,4.5-4.1,4.5s-3.2-1-3.2-3.9V102.8h-3.7v10.6c0,4.4,1.9,6.5,6.3,6.5a5.7,5.7,0,0,0,4.7-2.7h.1v2.3h3.6ZM385,96.4h-3.7v8.5h0c-1.1-1.8-3.5-2.6-5.6-2.6s-7.2,2.6-7.2,8.7,2.5,8.9,7.8,8.9c2.1,0,4.2-.7,5.2-2.7h0v2.3H385Zm-12.8,14.9c0-3,1.2-6.1,4.6-6.1s4.7,2.2,4.7,5.9-1.5,5.9-4.7,5.9-4.6-2.8-4.6-5.7Zm36.1-12.1c5,0,7.1,4.3,7.1,8.8s-2.1,8.8-7.1,8.8-7-4.4-7-8.8S403.4,99.2,408.3,99.2Zm0-3.3c-6.8,0-11,5.5-11,12.1s4.2,12,11,12,11.1-5.4,11.1-12S415.2,95.9,408.3,95.9Zm14.3,23.6h3.6v-2.3h0c1.1,2.2,3.5,2.7,5.8,2.7,4.9,0,7.2-4.2,7.2-8.7s-2.5-8.9-7.8-8.9a6.1,6.1,0,0,0-5,2.6h-.1V96.4h-3.7Zm12.9-8.3c0,2.9-1.3,5.8-4.6,5.8s-4.7-2.5-4.7-5.8,1.6-6,4.7-6S435.5,108.2,435.5,111.2Zm5.9,2.9c.1,4,3.2,5.8,7.4,5.8s7.4-1.4,7.4-5.4-2.6-4.2-5.3-4.8-5.5-.9-5.5-2.7,2-1.8,3.1-1.8,3,.5,3.4,2.3h3.8c-.4-3.8-3.6-5.2-6.9-5.2s-7.1,1.2-7.1,4.8,2.7,4.4,5.4,5,5.4.8,5.5,2.8-2.3,2.1-3.8,2.1-3.5-.7-3.7-2.9Zm20.5-4.4a4.5,4.5,0,0,1,4.5-4.5c2.5,0,4,2.2,4.1,4.5Zm12.3,2.4c.6-5-2.6-9.8-7.8-9.8s-8.1,4.1-8.1,8.9,2.9,8.7,8.1,8.7,6.8-2,7.6-5.7h-3.5c-.6,1.9-1.9,2.8-4.1,2.8a5,5,0,0,1-4.5-4.9Zm2.8,7.4h3.7v-7.9c0-3.8,2.1-5.8,4.5-5.8l1.6.2v-3.6h-1.3a5.3,5.3,0,0,0-4.9,3.7h-.1v-3.2H477Zm15.8,0H497l5.9-16.7h-3.8l-4,12.8H495l-4.3-12.8h-3.9Zm26.4-12.3c0-3.5-3.4-4.9-6.7-4.9s-7.4,1.3-7.6,5.6h3.7c.1-1.8,1.6-2.7,3.6-2.7s3.5.4,3.5,2.3-2.3,1.8-5,2.4-6.4,1-6.4,5.2,2.7,4.8,5.7,4.8a8.7,8.7,0,0,0,5.8-2c.3,1.5,1.3,2,2.8,2a8.5,8.5,0,0,0,2.3-.4V117H520c-.6,0-.8-.3-.8-1.2Zm-3.7,6.7c0,2.3-2.5,3.1-4.2,3.1s-3.4-.4-3.4-2.1,1.5-2.5,3-2.8,3.4-.2,4.6-1Zm5.9-8.3h2.8v9.8c.1,2.8.8,4.3,4.7,4.3l2.3-.3v-2.8a3.9,3.9,0,0,1-1.5.2c-1.6,0-1.8-.8-1.8-2.3v-8.9h3.3v-2.8h-3.3v-5h-3.7v5h-2.8Zm20.2,14.3c5.3,0,8.4-3.6,8.4-8.8s-3.1-8.8-8.4-8.8-8.5,3.7-8.5,8.8S536.2,119.9,541.6,119.9Zm0-2.9c-3.3,0-4.8-3-4.8-5.9s1.5-5.9,4.8-5.9,4.7,3,4.7,5.9S544.8,117,541.6,117Zm11.4,2.5h3.7v-7.9c0-3.8,2.1-5.8,4.5-5.8l1.6.2v-3.6h-1.3a5.3,5.3,0,0,0-4.9,3.7h-.1v-3.2H553Zm15.9-.1-.4,1.3c-.4,1.4-.9,2.4-2.6,2.4l-1.8-.3v3.1a11.4,11.4,0,0,0,2.6.2c3.9,0,4.7-2.7,5.9-5.7l6.5-17.6h-3.8L571,115.3h0l-4.4-12.5h-4Z" transform="translate(0 -0.1)"/></svg>